<?xml version="1.0" encoding="iso-8859-1"?>
<!-- Generator: Adobe Illustrator 18.0.0, SVG Export Plug-In . SVG Version: 6.00 Build 0)  -->
<!DOCTYPE svg PUBLIC "-//W3C//DTD SVG 1.1//EN" "http://www.w3.org/Graphics/SVG/1.1/DTD/svg11.dtd">
<svg version="1.1" id="Capa_1" xmlns="http://www.w3.org/2000/svg" xmlns:xlink="http://www.w3.org/1999/xlink" x="0px" y="0px"
	 viewBox="0 0 493.388 493.388" style="enable-background:new 0 0 493.388 493.388;" xml:space="preserve">
<path id="XMLID_255_" d="M490.953,238.302l-59.221-93.993c-4.461-7.059-12.219-11.339-20.566-11.339H24.296
	C10.866,132.97,0,143.85,0,157.265v178.856c0,13.417,10.866,24.297,24.296,24.297h386.87c8.348,0,16.106-4.282,20.566-11.342
	l59.221-93.992C494.2,249.957,494.2,243.43,490.953,238.302z M126.116,304.193H74.404c-6.094,0-11.023-4.936-11.023-11.016v-92.974
	c0-6.083,4.93-11.018,11.023-11.018h49.301c5.878,0,10.661,4.774,10.661,10.662c0,5.897-4.783,10.67-10.661,10.67H89.507V234.4
	h31.73c5.843,0,10.575,4.732,10.575,10.581c0,5.847-4.732,10.581-10.575,10.581h-31.73v27.301h36.609
	c5.877,0,10.661,4.774,10.661,10.66C136.777,299.42,131.993,304.193,126.116,304.193z M234.007,297.804
	c-2.28,3.95-6.492,6.389-11.071,6.389c-4.828,0-9.252-2.73-11.397-7.05l-6.885-13.763c-4.281-8.022-6.999-13.99-10.245-20.645h-0.35
	c-2.375,6.655-5.288,12.623-8.859,20.645l-6.202,13.496c-2.05,4.458-6.512,7.317-11.405,7.317c-4.468,0-8.619-2.383-10.866-6.252
	c-2.247-3.876-2.263-8.65-0.034-12.535l22.518-39.399l-21.338-37.81c-2.232-3.95-2.197-8.779,0.094-12.696
	c2.281-3.91,6.484-6.317,11.004-6.317c4.912,0,9.371,2.811,11.498,7.238l6.594,13.754c3.428,6.994,5.974,12.625,8.707,19.109h0.358
	c2.71-7.34,4.922-12.454,7.835-19.109l6.365-13.731c2.049-4.426,6.475-7.261,11.354-7.261c4.477,0,8.611,2.392,10.841,6.259
	c2.247,3.877,2.247,8.65,0,12.529l-21.571,37.346l23.023,39.715C236.262,288.985,236.262,293.854,234.007,297.804z M285.164,291.133
	c0,7.212-5.846,13.06-13.072,13.06c-7.201,0-13.045-5.848-13.045-13.06v-88.888c0-7.212,5.844-13.06,13.045-13.06
	c7.227,0,13.072,5.848,13.072,13.06V291.133z M376.432,211.026h-20.477v80.116c0,7.204-5.854,13.052-13.057,13.052
	c-7.202,0-13.053-5.848-13.053-13.052v-80.116h-19.967c-6.023,0-10.918-4.886-10.918-10.92c0-6.034,4.895-10.92,10.918-10.92h66.553
	c6.031,0,10.928,4.886,10.928,10.92C387.359,206.139,382.463,211.026,376.432,211.026z"/>
<g>
</g>
<g>
</g>
<g>
</g>
<g>
</g>
<g>
</g>
<g>
</g>
<g>
</g>
<g>
</g>
<g>
</g>
<g>
</g>
<g>
</g>
<g>
</g>
<g>
</g>
<g>
</g>
<g>
</g>
</svg>
