<?xml version="1.0" standalone="no"?>
<!DOCTYPE svg PUBLIC "-//W3C//DTD SVG 20010904//EN"
 "http://www.w3.org/TR/2001/REC-SVG-20010904/DTD/svg10.dtd">
<svg version="1.0" xmlns="http://www.w3.org/2000/svg"
 width="179.000000pt" height="251.000000pt" viewBox="0 0 179.000000 251.000000"
 preserveAspectRatio="xMidYMid meet">
<metadata>
Created by potrace 1.15, written by Peter Selinger 2001-2017
</metadata>
<g transform="translate(0.000000,251.000000) scale(0.100000,-0.100000)"
fill="#000000" stroke="none">
<path d="M803 2363 c-105 -51 -208 -190 -261 -353 -27 -81 -52 -211 -52 -267
0 -50 -4 -55 -113 -118 l-87 -50 0 -365 0 -365 113 -64 c61 -36 203 -118 315
-183 195 -115 204 -119 230 -105 23 12 302 174 537 311 l70 41 3 135 c2 74 0
240 -3 368 l-7 232 -88 51 -87 51 -12 108 c-6 60 -15 121 -20 137 -5 15 -17
53 -26 83 -52 171 -151 301 -269 356 -72 34 -171 32 -243 -3z m172 -64 c104
-29 206 -168 256 -351 24 -84 39 -187 28 -193 -4 -3 -80 38 -168 90 -89 52
-164 95 -166 95 -3 0 -75 -41 -162 -90 -86 -50 -160 -87 -164 -83 -8 9 21 165
41 223 60 178 179 312 280 319 8 0 33 -4 55 -10z m205 -728 l175 -100 3 -259
2 -260 -69 -41 c-38 -22 -71 -41 -74 -41 -2 0 -66 -36 -141 -80 -75 -44 -143
-80 -151 -80 -13 0 -405 219 -432 242 -10 8 -13 72 -13 259 l0 249 38 23 c20
13 120 72 221 130 l185 106 40 -24 c23 -13 120 -69 216 -124z"/>
<path d="M870 1378 c-25 -27 -26 -62 -1 -97 17 -24 18 -36 11 -131 -5 -58 -9
-111 -10 -117 0 -9 17 -13 52 -13 l51 0 -6 121 c-6 111 -4 124 13 147 25 32
25 53 -1 86 -27 34 -79 36 -109 4z"/>
<path d="M320 205 l0 -125 95 0 c88 0 95 2 95 20 0 17 -8 19 -72 22 l-73 3 -3
103 c-2 94 -4 102 -22 102 -19 0 -20 -7 -20 -125z"/>
<path d="M573 311 c-21 -17 -23 -28 -23 -109 0 -84 1 -91 25 -106 17 -11 47
-16 99 -16 69 0 76 2 95 26 30 38 30 160 0 198 -19 24 -26 26 -97 26 -60 -1
-82 -5 -99 -19z m155 -33 c7 -7 12 -40 12 -79 0 -52 -4 -68 -16 -73 -27 -10
-110 -6 -122 6 -7 7 -12 39 -12 73 0 34 5 66 12 73 16 16 110 16 126 0z"/>
<path d="M867 308 c-25 -22 -27 -29 -27 -105 0 -76 2 -83 26 -102 21 -17 41
-21 98 -21 66 0 74 2 97 27 19 21 25 38 24 68 l-2 40 -57 3 c-45 2 -56 0 -56
-13 0 -8 9 -15 19 -15 50 0 71 -39 32 -60 -27 -14 -104 -13 -119 2 -16 16 -16
130 0 146 7 7 42 12 86 12 65 0 73 2 70 18 -3 14 -16 17 -84 20 -72 2 -83 0
-107 -20z"/>
<path d="M1130 311 c0 -13 8 -21 23 -23 21 -3 22 -8 22 -83 0 -75 -1 -80 -22
-83 -15 -2 -23 -10 -23 -23 0 -17 8 -19 70 -19 63 0 70 2 70 20 0 13 -7 20
-20 20 -18 0 -20 7 -20 85 0 78 2 85 20 85 13 0 20 7 20 20 0 18 -7 20 -70 20
-62 0 -70 -2 -70 -19z"/>
<path d="M1332 208 c3 -115 4 -123 23 -123 18 0 21 8 25 80 l5 79 55 -69 c72
-92 75 -95 99 -95 20 0 21 5 21 125 0 118 -1 125 -20 125 -18 0 -20 -7 -20
-80 0 -44 -4 -80 -10 -80 -5 0 -35 33 -67 73 -66 82 -71 87 -96 87 -16 0 -17
-11 -15 -122z"/>
</g>
</svg>
