<?xml version="1.0" standalone="no"?>
<!DOCTYPE svg PUBLIC "-//W3C//DTD SVG 20010904//EN"
 "http://www.w3.org/TR/2001/REC-SVG-20010904/DTD/svg10.dtd">
<svg version="1.0" xmlns="http://www.w3.org/2000/svg"
 width="378.000000pt" height="378.000000pt" viewBox="0 0 378.000000 378.000000"
 preserveAspectRatio="xMidYMid meet">
<metadata>
Created by potrace 1.15, written by Peter Selinger 2001-2017
</metadata>
<g transform="translate(0.000000,378.000000) scale(0.100000,-0.100000)"
fill="#000000" stroke="none">
<path d="M1755 3578 c-157 -43 -294 -127 -413 -253 -169 -177 -283 -437 -307
-697 -4 -36 -12 -73 -18 -81 -7 -8 -97 -49 -202 -91 -104 -43 -193 -83 -197
-89 -4 -7 -8 -253 -8 -548 0 -418 3 -539 13 -546 6 -6 55 -27 107 -47 52 -21
138 -56 190 -78 52 -22 104 -43 115 -48 11 -4 47 -19 80 -33 33 -14 134 -56
225 -93 91 -36 188 -77 215 -89 28 -13 124 -53 214 -90 175 -71 198 -75 267
-41 16 8 142 60 279 116 138 56 268 110 290 120 22 10 103 44 180 75 136 55
350 144 410 170 17 7 40 16 53 20 13 4 27 18 33 32 10 28 12 441 2 821 -6 253
-7 263 -27 275 -12 6 -93 41 -181 77 -126 51 -162 70 -172 90 -6 14 -16 68
-23 119 -10 91 -19 125 -62 256 -18 55 -92 216 -111 240 -4 6 -29 40 -56 76
-65 87 -182 194 -272 248 -40 23 -119 58 -176 77 -99 32 -111 34 -241 33 -103
-1 -155 -6 -207 -21z m357 -127 c138 -48 248 -132 351 -270 53 -72 59 -81 100
-166 59 -120 92 -224 102 -317 8 -77 7 -77 -160 -3 -16 7 -82 34 -145 60 -63
26 -128 53 -145 60 -16 7 -59 25 -95 40 -36 15 -84 35 -108 46 -55 25 -70 24
-134 -5 -29 -13 -89 -38 -133 -56 -44 -18 -98 -40 -120 -50 -190 -83 -356
-143 -366 -133 -19 19 39 227 99 352 106 223 276 383 477 450 54 17 216 13
277 -8z m182 -1002 c177 -72 335 -136 351 -143 17 -7 71 -30 120 -51 50 -20
96 -42 103 -47 9 -8 12 -94 10 -391 l-3 -381 -115 -47 c-63 -26 -131 -54 -150
-62 -19 -8 -82 -34 -140 -57 -58 -23 -118 -48 -135 -55 -41 -19 -300 -124
-349 -142 -43 -15 -65 -10 -171 38 -22 10 -83 36 -135 57 -361 146 -628 257
-647 270 l-23 14 0 368 c0 337 1 368 18 382 9 9 125 59 257 113 132 53 254
103 270 110 79 34 203 85 208 85 4 0 35 13 69 29 84 37 89 39 117 40 14 1 169
-58 345 -130z"/>
<path d="M1863 2094 c-41 -18 -63 -50 -63 -93 0 -26 8 -42 37 -68 l37 -35 -14
-147 c-7 -80 -13 -162 -14 -181 l-1 -35 99 -3 c55 -1 102 1 106 5 7 7 1 123
-16 290 l-7 71 42 40 c45 42 51 68 24 108 -37 57 -153 82 -230 48z"/>
<path d="M1210 469 c-25 -17 -48 -38 -52 -47 -10 -26 -9 -197 1 -226 6 -13 30
-36 54 -50 42 -25 50 -26 197 -26 150 0 154 1 197 28 24 15 46 36 49 47 3 11
4 69 2 130 l-3 110 -50 32 -50 33 -150 0 -150 0 -45 -31z m320 -44 l30 -16 0
-103 c0 -101 0 -103 -27 -117 -41 -22 -221 -19 -256 4 -26 17 -27 20 -27 112
0 89 1 95 26 114 23 18 41 21 126 21 69 0 108 -5 128 -15z"/>
<path d="M2393 482 c-7 -7 -13 -17 -13 -22 0 -14 36 -30 68 -30 38 0 42 -11
42 -129 0 -109 -6 -121 -61 -121 -40 0 -58 -22 -38 -47 9 -11 42 -13 153 -11
l141 3 0 25 c0 19 -6 26 -25 28 -75 8 -71 0 -68 130 3 117 3 117 28 120 59 6
70 12 70 37 l0 24 -142 3 c-107 2 -145 0 -155 -10z"/>
<path d="M672 308 l3 -183 170 -3 c206 -4 237 1 233 31 -3 21 -7 22 -147 25
-86 1 -150 7 -158 14 -10 8 -13 47 -13 154 l0 144 -45 0 -45 0 2 -182z"/>
<path d="M1828 461 c-55 -35 -62 -57 -57 -185 4 -94 6 -97 85 -136 34 -17 60
-20 178 -20 143 0 162 4 229 53 25 19 27 26 27 88 0 52 -4 68 -16 73 -24 9
-197 7 -212 -3 -8 -5 -12 -17 -10 -27 2 -15 13 -20 48 -22 75 -4 90 -10 90
-36 0 -12 -9 -31 -21 -42 -18 -16 -37 -19 -139 -19 -155 0 -160 4 -160 125 0
119 2 120 189 120 77 0 146 3 155 6 9 3 16 17 16 30 l0 24 -178 0 -178 0 -46
-29z"/>
<path d="M2817 483 c-4 -3 -7 -84 -7 -179 0 -185 0 -184 54 -184 40 0 46 18
46 131 0 59 4 110 8 113 4 2 26 -12 47 -32 197 -183 254 -221 312 -210 17 3
18 17 21 186 l2 183 -47 -3 -48 -3 -3 -112 c-2 -99 -5 -113 -20 -113 -9 0 -28
10 -42 23 -14 12 -71 64 -128 115 -96 86 -105 92 -145 92 -24 0 -47 -3 -50 -7z"/>
</g>
</svg>
