<?xml version="1.0" standalone="no"?>
<!DOCTYPE svg PUBLIC "-//W3C//DTD SVG 20010904//EN"
 "http://www.w3.org/TR/2001/REC-SVG-20010904/DTD/svg10.dtd">
<svg version="1.0" xmlns="http://www.w3.org/2000/svg"
 width="231.000000pt" height="71.000000pt" viewBox="0 0 231.000000 71.000000"
 preserveAspectRatio="xMidYMid meet">
<metadata>
Created by potrace 1.15, written by Peter Selinger 2001-2017
</metadata>
<g transform="translate(0.000000,71.000000) scale(0.100000,-0.100000)"
fill="#000000" stroke="none">
<path d="M1329 634 c-66 -20 -123 -84 -139 -156 -49 -217 223 -358 368 -192
77 86 77 202 1 288 -30 34 -53 50 -92 61 -61 18 -78 18 -138 -1z m115 -88
c107 -45 101 -200 -9 -236 -26 -9 -44 -9 -70 0 -109 36 -116 190 -11 236 40
17 49 17 90 0z"/>
<path d="M70 430 l0 -210 120 0 120 0 0 45 0 44 -72 3 -73 3 -3 163 -2 162
-45 0 -45 0 0 -210z"/>
<path d="M2063 588 c-27 -9 -33 -16 -33 -39 0 -24 -4 -29 -25 -29 -22 0 -25
-4 -25 -39 0 -33 4 -40 23 -43 20 -3 22 -10 28 -83 3 -44 9 -88 13 -98 11 -23
46 -37 97 -37 39 0 39 0 39 40 0 36 -3 40 -25 40 -32 0 -47 29 -43 88 3 45 4
47 36 50 30 3 32 6 32 43 0 38 -1 39 -35 39 -34 0 -35 1 -35 40 0 22 -3 40 -7
39 -5 -1 -23 -6 -40 -11z"/>
<path d="M420 508 c-55 -29 -84 -75 -84 -138 0 -63 29 -109 84 -137 56 -29 84
-29 140 0 48 24 90 88 90 137 0 14 -10 46 -22 70 -25 48 -89 90 -138 90 -14 0
-46 -10 -70 -22z m120 -88 c11 -11 20 -33 20 -50 0 -61 -77 -93 -120 -50 -11
11 -20 33 -20 50 0 17 9 39 20 50 11 11 33 20 50 20 17 0 39 -9 50 -20z"/>
<path d="M785 523 c-119 -30 -142 -213 -33 -277 33 -20 107 -21 136 0 21 15
22 14 22 -14 0 -56 -62 -80 -119 -46 -25 15 -29 15 -60 -4 l-34 -20 26 -25
c73 -74 233 -48 264 43 7 21 12 97 12 188 l1 152 -44 0 c-24 0 -46 -5 -48 -11
-2 -6 -14 -5 -33 5 -30 16 -53 18 -90 9z m99 -94 c64 -51 6 -145 -73 -118 -55
19 -62 97 -12 124 36 20 54 18 85 -6z"/>
<path d="M1660 415 c0 -129 14 -169 64 -190 45 -19 64 -19 101 1 19 10 31 11
33 5 2 -6 21 -11 43 -11 l39 0 0 150 0 150 -40 0 -40 0 0 -95 c0 -82 -3 -98
-20 -115 -24 -24 -38 -25 -68 -4 -20 14 -22 23 -22 115 l0 99 -45 0 -45 0 0
-105z"/>
</g>
</svg>
